<?xml version="1.0" encoding="UTF-8" standalone="no" ?>
<!DOCTYPE svg PUBLIC "-//W3C//DTD SVG 1.1//EN" "http://www.w3.org/Graphics/SVG/1.1/DTD/svg11.dtd">
<svg xmlns="http://www.w3.org/2000/svg" xmlns:xlink="http://www.w3.org/1999/xlink" version="1.1" width="24" height="24" viewBox="0 0 24 24" xml:space="preserve">
<desc>Created with Fabric.js 5.3.0</desc>
<defs>
</defs>
<g transform="matrix(1 0 0 1 12 12)" id="SfOhdzWNwo9nqpsCt8nHp"  >
<path style="stroke: rgb(130,130,130); stroke-width: 1.5; stroke-dasharray: none; stroke-linecap: round; stroke-dashoffset: 0; stroke-linejoin: round; stroke-miterlimit: 4; fill: rgb(255,255,255); fill-opacity: 0; fill-rule: nonzero; opacity: 1;"  transform=" translate(-11.9996952224, -12.0012536855)" d="M 12.75 3.03 L 12.75 3.598 C 12.75 3.932 12.898 4.248 13.155 4.462 L 14.222999999999999 5.351999999999999 C 14.665 5.720999999999999 14.758 6.361999999999999 14.438999999999998 6.842 L 13.928999999999998 7.608 C 13.651280596865265 8.024210492003167 13.242749702179596 8.335974809566906 12.767999999999999 8.494 L 12.624999999999998 8.542 C 12.297938678611919 8.651354359469888 12.040523077881996 8.906884458579476 11.928767261813194 9.233133016366299 C 11.81701144574439 9.559381574153122 11.863683017404126 9.919076149381763 12.054999999999998 10.206 C 12.423999999999998 10.761 12.223999999999998 11.513 11.627999999999998 11.811 L 9 13.125 L 9.423 14.184 C 9.599436464567846 14.628832930867642 9.419783286144114 15.13559332139486 9.002559573053487 15.369965964099523 C 8.585335859962859 15.604338606804186 8.059093430508328 15.494110373729164 7.771000000000001 15.112 L 7.092 14.206 C 6.858024752833659 13.894199451012765 6.479310264444788 13.725747459208145 6.091062307411617 13.76078347631712 C 5.702814350378448 13.795819493426094 5.360375244278767 14.029349354198203 5.186 14.378 L 4.5 15.75 L 3.888 15.903 M 12.75 3.031 C 9.531861064442113 2.7609495984006287 6.41572436087943 4.235836485111345 4.5843943594965335 6.895831946384268 C 2.7530643581136367 9.555827407657192 2.4873081950903924 12.99311892070884 3.8880000000000017 15.903000000000002 M 12.75 3.031 C 15.940206296178168 3.2970683395618474 18.74895817514595 5.237721785874118 20.126335805720803 8.127538291516654 C 21.503713436295655 11.017354797159191 21.242371350645747 14.421311793150318 19.440000000000005 17.066999999999997 M 19.44 17.067 L 19.263 16.538 C 18.956520623776274 15.619261290317498 18.09650934549655 14.999730917486486 17.128 15 L 16.5 15 L 16.176 14.676 C 15.845832761521494 14.345282255802315 15.37674992446886 14.193551022136916 14.915443263954725 14.268255751953852 C 14.454136603440588 14.34296048177079 14.056915835560275 14.634982290633664 13.847999999999999 15.053 L 13.812 15.126000000000001 C 13.613441961748508 15.523564007288773 13.257197512040392 15.819587908471892 12.83 15.942000000000002 L 11.84 16.224 C 11.29 16.381 10.946 16.926000000000002 11.04 17.491 L 11.113 17.929 C 11.193 18.403 11.603 18.75 12.083 18.75 C 12.929 18.75 13.681000000000001 19.292 13.948 20.095 L 14.163 20.738 M 19.439 17.067999999999998 C 18.19113267478841 18.898167145720546 16.31293465527402 20.204646814336503 14.163 20.738 M 14.163 20.738 C 10.025158443647424 21.763153492103015 5.7356945121837555 19.744705014377775 3.888 15.902999999999999 M 15.75 9 C 15.75 9.896 15.357 10.7 14.734 11.25" stroke-linecap="round" />
</g>
</svg>